<svg version="1.1" id="Layer_1" xmlns="http://www.w3.org/2000/svg" x="0" y="0" viewBox="0 0 550 400" style="enable-background:new 0 0 550 400" xml:space="preserve"><style>.st0{fill:#3d3935}</style><path class="st0" d="M239.5 201.1h-23.4c-1.4 0-2.6 1.2-2.6 2.6 0 1.5 1.2 2.6 2.6 2.6h20.8v57.6c0 1.4 1.1 2.6 2.6 2.6 1.3 0 2.6-1.2 2.6-2.6v-60.2c0-1.5-1.2-2.6-2.6-2.6zm23.3 0h-17.1c-1.5 0-2.6 1.2-2.6 2.6 0 1.5 1.1 2.6 2.6 2.6h17.1c1.4 0 2.6-1.1 2.6-2.6s-1.1-2.6-2.6-2.6zM260.1 235.1l27.9 28c2.2 2.2 5.1 3.4 8.3 3.4 3.2 0 6.1-1.3 8.3-3.4l28-28c1-1.1 1-2.6 0-3.7l-28-28c-2.2-2.2-5.1-3.4-8.3-3.4-3.1 0-6 1.3-8.3 3.4l-27.9 28c-.5.5-.8 1.3-.8 1.9s.2 1.3.8 1.8zm5.4-1.8 26.1-26.1c1.2-1.3 3-1.9 4.6-1.9 1.8 0 3.4.6 4.7 1.9l26 26.1-26 26c-1.3 1.3-2.9 2-4.7 2-1.6 0-3.4-.7-4.6-2l-26.1-26zM368.1 231.1h-20.6c-1.5 0-2.7 1.3-2.7 2.6 0 1.5 1.2 2.7 2.7 2.7h20.6c1.3 0 2.6-1.2 2.6-2.7 0-1.4-1.2-2.6-2.6-2.6zM384.1 266.5c1.3 0 2.6-1.2 2.6-2.6v-57.7h17.4c.7 0 1.6.1 2.4.1.8.1 1.7.4 2.5.4l2.7.5h-.1c.9.3 1.7.7 2.6 1l-.1-.1c.9.4 1.8.9 2.6 1.2h-.1l2.6 1.4-.1-.1c.7.5 1.5 1.3 2.3 1.8h-.1l2.1 1.8 2.1 2.2v-.1l1.6 2.4-.1-.1 1.5 2.4 1.2 2.5-.1-.1.9 2.7.5 2.5v-.1l.4 2.7v-.1l.2 2.5c0 .8-.1 1.8-.1 2.6v-.1l-.4 2.6v-.1l-.6 2.5-.8 2.7.1-.1c-.4.8-.9 1.7-1.3 2.6v-.1l-1.5 2.5.1-.1-1.6 2.3v.1c-.5.6-1.4 1.4-2 2.1l-2.2 2h.1c-.8.5-1.6 1.3-2.3 1.8l.1-.1-2.6 1.3h.1l-2.4 1.3.1-.1-2.7.9-2.5.6h.1l-2.6.4h.1l-2.7.2h-4.5c-1.4 0-2.6 1.2-2.6 2.5 0 1.4 1.2 2.6 2.6 2.6l4.7.1 2.9-.2 3.2-.4 2.9-.8 2.5-.8 3.6-1.5 2.6-1.5 2.6-2.1 2.7-2.2 2.3-2.6 1.9-2.6 1.7-2.7 1.6-3.9.9-2.5.8-2.9.4-3.2.1-3-.1-3-.4-3.1-.6-2.7-1.3-3.7-1.2-2.4-1.7-2.9-1.9-2.8-2.3-2.5-2.6-2.3c-.8-.5-1.6-1.3-2.3-1.8-.1-.2-.4-.4-.4-.4l-2.8-1.5-3.3-1.6-2.6-.8-3.1-.7-3.1-.4-2.8-.2h-20.2c-1.6 0-2.7 1.1-2.7 2.6v60.3c-.2 1.5 1 2.7 2.5 2.7zM449.1 235.1l27.9 28c2.2 2.2 5.1 3.4 8.3 3.4 3.2 0 6.1-1.3 8.3-3.4l28-28c1-1.1 1-2.6 0-3.7l-28-28c-2.2-2.2-5.1-3.4-8.3-3.4-3.1 0-6 1.3-8.3 3.4l-27.9 28c-.5.5-.8 1.3-.8 1.9s.3 1.3.8 1.8zm5.5-1.8 26.1-26.1c1.2-1.3 3-1.9 4.6-1.9 1.8 0 3.4.6 4.7 1.9l26 26.1-26 26c-1.3 1.3-2.9 2-4.7 2-1.6 0-3.4-.7-4.6-2l-26.1-26z"/><g><path d="M37.1 152.3c5.3 0 9.5-4.3 9.5-9.5 0-5.3-4.3-9.5-9.5-9.5s-9.5 4.3-9.5 9.5c0 5.3 4.3 9.5 9.5 9.5zm66.8 114.4h76.3v-19.1h-76.3v19.1zm76.2-38.1v-19.1H142v19.1h38.1zm0-38.1v-19.1h-76.3v19.1h76.3zm0-38.2v-19.1H65.7v19.1h114.4zM75.3 266.7c5.3 0 9.5-4.3 9.5-9.5 0-5.3-4.3-9.5-9.5-9.5s-9.5 4.3-9.5 9.5c-.1 5.3 4.2 9.5 9.5 9.5zm0-76.2c5.3 0 9.5-4.3 9.5-9.5 0-5.3-4.3-9.5-9.5-9.5s-9.5 4.3-9.5 9.5c-.1 5.2 4.2 9.5 9.5 9.5zm38.1 38.1c5.3 0 9.5-4.3 9.5-9.5 0-5.3-4.3-9.5-9.5-9.5s-9.5 4.3-9.5 9.5 4.2 9.5 9.5 9.5z" style="fill-rule:evenodd;clip-rule:evenodd;fill:#3d3935"/></g></svg>