<?xml version="1.0" encoding="utf-8"?>
<!-- Generator: Adobe Illustrator 27.3.1, SVG Export Plug-In . SVG Version: 6.00 Build 0)  -->
<svg version="1.1" id="Layer_1" xmlns:mydata="http://www.w3.org/2000/svg"
	 xmlns="http://www.w3.org/2000/svg" xmlns:xlink="http://www.w3.org/1999/xlink" x="0px" y="0px" viewBox="0 0 550 400"
	 style="enable-background:new 0 0 550 400;" xml:space="preserve">
<style type="text/css">
	.st0{fill:#3D3935;}
	.st1{fill-rule:evenodd;clip-rule:evenodd;fill:#3D3935;}
</style>
<g>
	<g>
		<path class="st0" d="M239.5,201.1h-23.4c-1.4,0-2.6,1.2-2.6,2.6c0,1.5,1.2,2.6,2.6,2.6h20.8v57.6c0,1.4,1.1,2.6,2.6,2.6
			c1.3,0,2.6-1.2,2.6-2.6v-60.2C242.1,202.2,240.9,201.1,239.5,201.1z M262.8,201.1h-17.1c-1.5,0-2.6,1.2-2.6,2.6
			c0,1.5,1.1,2.6,2.6,2.6h17.1c1.4,0,2.6-1.1,2.6-2.6C265.4,202.2,264.3,201.1,262.8,201.1z"/>
		<path class="st0" d="M260.1,235.1l27.9,28c2.2,2.2,5.1,3.4,8.3,3.4c3.2,0,6.1-1.3,8.3-3.4l28-28c1-1.1,1-2.6,0-3.7l-28-28
			c-2.2-2.2-5.1-3.4-8.3-3.4c-3.1,0-6,1.3-8.3,3.4l-27.9,28c-0.5,0.5-0.8,1.3-0.8,1.9S259.5,234.6,260.1,235.1z M265.5,233.3
			l26.1-26.1c1.2-1.3,3-1.9,4.6-1.9c1.8,0,3.4,0.6,4.7,1.9l26,26.1l-26,26c-1.3,1.3-2.9,2-4.7,2c-1.6,0-3.4-0.7-4.6-2L265.5,233.3z"
			/>
		<path class="st0" d="M368.1,231.1h-20.6c-1.5,0-2.7,1.3-2.7,2.6c0,1.5,1.2,2.7,2.7,2.7h20.6c1.3,0,2.6-1.2,2.6-2.7
			C370.7,232.3,369.5,231.1,368.1,231.1z"/>
		<path class="st0" d="M384.1,266.5c1.3,0,2.6-1.2,2.6-2.6v-57.7h17.4c0.7,0,1.6,0.1,2.4,0.1c0.8,0.1,1.7,0.4,2.5,0.4l2.7,0.5h-0.1
			c0.9,0.3,1.7,0.7,2.6,1l-0.1-0.1c0.9,0.4,1.8,0.9,2.6,1.2h-0.1l2.6,1.4l-0.1-0.1c0.7,0.5,1.5,1.3,2.3,1.8h-0.1l2.1,1.8l2.1,2.2
			v-0.1l1.6,2.4l-0.1-0.1l1.5,2.4V221l1.2,2.5l-0.1-0.1l0.9,2.7l0.5,2.5v-0.1l0.4,2.7v-0.1l0.2,2.5c0,0.8-0.1,1.8-0.1,2.6v-0.1
			l-0.4,2.6v-0.1l-0.6,2.5l-0.8,2.7l0.1-0.1c-0.4,0.8-0.9,1.7-1.3,2.6v-0.1l-1.5,2.5l0.1-0.1l-1.6,2.3V251c-0.5,0.6-1.4,1.4-2,2.1
			l-2.2,2h0.1c-0.8,0.5-1.6,1.3-2.3,1.8l0.1-0.1l-2.6,1.3h0.1l-2.4,1.3l0.1-0.1l-2.7,0.9l-2.5,0.6h0.1l-2.6,0.4h0.1l-2.7,0.2h-4.5
			c-1.4,0-2.6,1.2-2.6,2.5c0,1.4,1.2,2.6,2.6,2.6l4.7,0.1l2.9-0.2l3.2-0.4l2.9-0.8l2.5-0.8l3.6-1.5l2.6-1.5l2.6-2.1l2.7-2.2l2.3-2.6
			l1.9-2.6l1.7-2.7l1.6-3.9l0.9-2.5l0.8-2.9l0.4-3.2l0.1-3l-0.1-3l-0.4-3.1l-0.6-2.7l-1.3-3.7l-1.2-2.4l-1.7-2.9l-1.9-2.8l-2.3-2.5
			l-2.6-2.3c-0.8-0.5-1.6-1.3-2.3-1.8c-0.1-0.2-0.4-0.4-0.4-0.4l-2.8-1.5l-3.3-1.6l-2.6-0.8l-3.1-0.7l-3.1-0.4l-2.8-0.2h-20.2
			c-1.6,0-2.7,1.1-2.7,2.6v60.3C381.4,265.3,382.6,266.5,384.1,266.5L384.1,266.5z"/>
		<path class="st0" d="M449.1,235.1l27.9,28c2.2,2.2,5.1,3.4,8.3,3.4c3.2,0,6.1-1.3,8.3-3.4l28-28c1-1.1,1-2.6,0-3.7l-28-28
			c-2.2-2.2-5.1-3.4-8.3-3.4c-3.1,0-6,1.3-8.3,3.4l-27.9,28c-0.5,0.5-0.8,1.3-0.8,1.9S448.6,234.6,449.1,235.1L449.1,235.1z
			 M454.6,233.3l26.1-26.1c1.2-1.3,3-1.9,4.6-1.9c1.8,0,3.4,0.6,4.7,1.9l26,26.1l-26,26c-1.3,1.3-2.9,2-4.7,2c-1.6,0-3.4-0.7-4.6-2
			L454.6,233.3z"/>
	</g>
	<g>
		<path class="st1" d="M37.1,152.3c5.3,0,9.5-4.3,9.5-9.5c0-5.3-4.3-9.5-9.5-9.5s-9.5,4.3-9.5,9.5C27.6,148.1,31.9,152.3,37.1,152.3
			z M103.9,266.7h76.3v-19.1h-76.3V266.7z M180.1,228.6v-19.1H142v19.1H180.1z M180.1,190.5v-19.1h-76.3v19.1H180.1z M180.1,152.3
			v-19.1H65.7v19.1H180.1z M75.3,266.7c5.3,0,9.5-4.3,9.5-9.5c0-5.3-4.3-9.5-9.5-9.5s-9.5,4.3-9.5,9.5
			C65.7,262.5,70,266.7,75.3,266.7z M75.3,190.5c5.3,0,9.5-4.3,9.5-9.5c0-5.3-4.3-9.5-9.5-9.5s-9.5,4.3-9.5,9.5
			C65.7,186.2,70,190.5,75.3,190.5z M113.4,228.6c5.3,0,9.5-4.3,9.5-9.5c0-5.3-4.3-9.5-9.5-9.5s-9.5,4.3-9.5,9.5
			C103.9,224.3,108.1,228.6,113.4,228.6z"/>
	</g>
</g>
</svg>
